<svg width="992.55" height="145.8" viewBox="0 0 992.55 145.8" xmlns="http://www.w3.org/2000/svg">
	<g id="svgGroup" stroke-linecap="round" fill-rule="evenodd" font-size="9pt" stroke="#000" stroke-width="0.25mm" fill="none" style="stroke:#000;stroke-width:0.25mm;fill:none">
		<path d="M 14.25 111 L 0 111 L 0 6.3 A 168.426 168.426 0 0 1 6.469 5.644 A 221.334 221.334 0 0 1 13.575 5.175 Q 21 4.8 28.95 4.8 A 68.937 68.937 0 0 1 38.909 5.481 Q 44.228 6.258 48.707 7.923 A 39.016 39.016 0 0 1 51.15 8.925 A 36.91 36.91 0 0 1 58.772 13.468 A 29.06 29.06 0 0 1 65.1 20.25 A 28.72 28.72 0 0 1 69.869 35.274 A 35.095 35.095 0 0 1 69.9 36.75 A 37.887 37.887 0 0 1 68.838 45.933 A 28.902 28.902 0 0 1 64.35 55.8 A 33.468 33.468 0 0 1 53.023 65.744 A 42.098 42.098 0 0 1 48.9 67.725 A 52.162 52.162 0 0 1 36.766 71.06 A 70.791 70.791 0 0 1 25.95 71.85 A 156.035 156.035 0 0 1 19.147 71.708 A 124.393 124.393 0 0 1 14.25 71.4 L 14.25 111 Z M 14.25 17.4 L 14.25 59.25 A 71.953 71.953 0 0 0 16.198 59.464 Q 17.944 59.634 20.1 59.775 A 102.132 102.132 0 0 0 23.738 59.944 A 136.698 136.698 0 0 0 27.75 60 A 47.746 47.746 0 0 0 35.82 59.362 Q 40.139 58.62 43.595 57.016 A 22.831 22.831 0 0 0 48.45 54 A 19.345 19.345 0 0 0 55.733 39.837 A 25.98 25.98 0 0 0 55.8 37.95 A 21.678 21.678 0 0 0 54.659 30.76 A 18.203 18.203 0 0 0 48.75 22.5 Q 43.146 17.969 33.75 17.04 A 51.87 51.87 0 0 0 28.65 16.8 A 196.687 196.687 0 0 0 23.763 16.859 A 164.905 164.905 0 0 0 21 16.95 A 136.911 136.911 0 0 0 16.676 17.196 A 112.559 112.559 0 0 0 14.25 17.4 Z" id="0" vector-effect="non-scaling-stroke"/>
		<path d="M 136.8 39.3 L 136.8 33 L 149.1 33 L 149.1 92.1 A 18.225 18.225 0 0 0 149.252 94.554 Q 149.637 97.376 150.994 98.806 A 4.448 4.448 0 0 0 151.875 99.525 Q 154.65 101.25 157.95 101.25 L 155.1 111.75 Q 141.055 111.75 137.855 100.62 A 20.385 20.385 0 0 1 137.7 100.05 A 31.961 31.961 0 0 1 133.036 105.189 A 42.747 42.747 0 0 1 128.325 108.825 A 22.392 22.392 0 0 1 120.895 111.98 Q 117.405 112.8 113.25 112.8 Q 103.5 112.8 95.55 107.85 A 34.42 34.42 0 0 1 84.43 96.56 A 41.884 41.884 0 0 1 82.875 93.825 Q 78.15 84.75 78.15 72.45 A 49.713 49.713 0 0 1 79.645 60.047 A 41.952 41.952 0 0 1 82.875 51.45 Q 87.6 42.15 95.925 36.675 A 33.446 33.446 0 0 1 112.717 31.265 A 41.082 41.082 0 0 1 115.05 31.2 A 33.876 33.876 0 0 1 122.24 31.936 A 28.055 28.055 0 0 1 127.275 33.525 A 39.003 39.003 0 0 1 133.705 36.966 A 33.154 33.154 0 0 1 136.8 39.3 Z M 135.6 91.05 L 135.6 49.2 Q 131.55 46.35 126.675 44.625 Q 121.8 42.9 116.4 42.9 A 23.887 23.887 0 0 0 108.943 44.031 A 21.035 21.035 0 0 0 103.725 46.575 A 24.451 24.451 0 0 0 96.196 54.711 A 29.944 29.944 0 0 0 95.1 56.775 A 30.995 30.995 0 0 0 92.47 65.29 A 41.517 41.517 0 0 0 91.95 72 Q 91.95 80.4 95.1 86.925 A 26.403 26.403 0 0 0 99.758 93.744 A 23.545 23.545 0 0 0 103.8 97.125 Q 109.35 100.8 116.25 100.8 Q 121.95 100.8 127.05 98.025 A 29.176 29.176 0 0 0 134.13 92.697 A 27.106 27.106 0 0 0 135.6 91.05 Z" id="1" vector-effect="non-scaling-stroke"/>
		<path d="M 178.95 84.15 L 178.95 47.55 L 165.45 47.55 L 165.45 35.85 L 179.25 35.85 L 182.1 11.25 L 192.45 11.25 L 192.45 35.85 L 214.05 35.85 L 214.05 47.55 L 192.45 47.55 L 192.45 85.2 Q 192.45 93.9 196.125 97.35 Q 199.8 100.8 204.9 100.8 Q 208.65 100.8 212.025 99.6 A 38.599 38.599 0 0 0 216.792 97.547 A 34.151 34.151 0 0 0 218.25 96.75 L 222 107.55 Q 219.961 108.773 216.952 109.962 A 65.048 65.048 0 0 1 213.9 111.075 Q 208.8 112.8 203.25 112.8 A 27.49 27.49 0 0 1 195.477 111.756 A 20.901 20.901 0 0 1 185.475 105.375 Q 180.011 99.158 179.123 88.471 A 52.166 52.166 0 0 1 178.95 84.15 Z" id="2" vector-effect="non-scaling-stroke"/>
		<path d="M 249 111 L 235.5 111 L 235.5 33 L 248.55 33 L 248.55 49.95 Q 250.5 45 253.8 40.725 Q 257.1 36.45 262.05 33.825 Q 267 31.2 273.6 31.2 Q 275.85 31.2 278.1 31.425 Q 280.35 31.65 281.85 32.1 L 277.8 46.05 Q 275.079 44.904 271.402 44.852 A 24.891 24.891 0 0 0 271.05 44.85 A 19.437 19.437 0 0 0 261.105 47.619 A 23.413 23.413 0 0 0 260.475 48 Q 255.483 51.129 252.268 57.663 A 34.3 34.3 0 0 0 252.225 57.75 Q 249 64.35 249 74.55 L 249 111 Z" id="3" vector-effect="non-scaling-stroke"/>
		<path d="M 284.1 142.8 L 287.1 131.55 A 14.861 14.861 0 0 0 288.847 132.411 Q 290.081 132.928 291.6 133.35 A 20.27 20.27 0 0 0 295.018 133.976 A 26.037 26.037 0 0 0 297.6 134.1 Q 303.9 134.1 308.85 130.05 A 18.005 18.005 0 0 0 311.749 126.958 Q 314.372 123.492 316.861 117.713 A 87.87 87.87 0 0 0 318.3 114.15 L 321.75 105.15 L 314.55 105.15 L 284.1 36.6 L 296.1 31.2 L 325.2 96.15 L 347.85 31.8 L 360.3 36.6 L 331.65 114.9 Q 328.594 123.332 325.167 129.171 A 46.29 46.29 0 0 1 322.2 133.65 Q 317.1 140.4 310.95 143.1 A 32.177 32.177 0 0 1 300.966 145.631 A 39.058 39.058 0 0 1 297.3 145.8 Q 292.8 145.8 289.425 144.9 A 30.49 30.49 0 0 1 287.273 144.246 Q 286.267 143.896 285.435 143.51 A 12.921 12.921 0 0 1 284.1 142.8 Z" id="4" vector-effect="non-scaling-stroke"/>
		<path d="M 436.95 103.5 L 427.65 112.5 L 387.3 70.95 L 387.3 111 L 373.8 111 L 373.8 0 L 387.3 0 L 387.3 63.45 L 422.55 31.5 L 430.35 40.05 L 400.2 66.75 L 436.95 103.5 Z" id="5" vector-effect="non-scaling-stroke"/>
		<path d="M 572.1 102.6 L 562.2 112.8 L 511.2 62.7 L 511.2 111 L 496.95 111 L 496.95 6 L 511.2 6 L 511.2 53.85 L 555.9 5.55 L 565.5 14.4 L 524.55 57 L 572.1 102.6 Z" id="7" vector-effect="non-scaling-stroke"/>
		<path d="M 639 39.3 L 639 33 L 651.3 33 L 651.3 92.1 A 18.225 18.225 0 0 0 651.452 94.554 Q 651.837 97.376 653.194 98.806 A 4.448 4.448 0 0 0 654.075 99.525 Q 656.85 101.25 660.15 101.25 L 657.3 111.75 Q 643.255 111.75 640.055 100.62 A 20.385 20.385 0 0 1 639.9 100.05 A 31.961 31.961 0 0 1 635.236 105.189 A 42.747 42.747 0 0 1 630.525 108.825 A 22.392 22.392 0 0 1 623.095 111.98 Q 619.605 112.8 615.45 112.8 Q 605.7 112.8 597.75 107.85 A 34.42 34.42 0 0 1 586.63 96.56 A 41.884 41.884 0 0 1 585.075 93.825 Q 580.35 84.75 580.35 72.45 A 49.713 49.713 0 0 1 581.845 60.047 A 41.952 41.952 0 0 1 585.075 51.45 Q 589.8 42.15 598.125 36.675 A 33.446 33.446 0 0 1 614.917 31.265 A 41.082 41.082 0 0 1 617.25 31.2 A 33.876 33.876 0 0 1 624.44 31.936 A 28.055 28.055 0 0 1 629.475 33.525 A 39.003 39.003 0 0 1 635.905 36.966 A 33.154 33.154 0 0 1 639 39.3 Z M 637.8 91.05 L 637.8 49.2 Q 633.75 46.35 628.875 44.625 Q 624 42.9 618.6 42.9 A 23.887 23.887 0 0 0 611.143 44.031 A 21.035 21.035 0 0 0 605.925 46.575 A 24.451 24.451 0 0 0 598.396 54.711 A 29.944 29.944 0 0 0 597.3 56.775 A 30.995 30.995 0 0 0 594.67 65.29 A 41.517 41.517 0 0 0 594.15 72 Q 594.15 80.4 597.3 86.925 A 26.403 26.403 0 0 0 601.958 93.744 A 23.545 23.545 0 0 0 606 97.125 Q 611.55 100.8 618.45 100.8 Q 624.15 100.8 629.25 98.025 A 29.176 29.176 0 0 0 636.33 92.697 A 27.106 27.106 0 0 0 637.8 91.05 Z" id="8" vector-effect="non-scaling-stroke"/>
		<path d="M 707.85 111 L 693 111 L 668.4 36.6 L 680.85 32.25 L 700.95 95.7 L 719.25 38.55 L 733.8 38.55 L 751.65 95.7 L 771.6 32.25 L 783.6 36.6 L 758.85 111 L 744 111 L 726 52.95 L 707.85 111 Z" id="9" vector-effect="non-scaling-stroke"/>
		<path d="M 812.85 111 L 799.35 111 L 799.35 33 L 812.85 33 L 812.85 111 Z M 799.556 16.932 A 8.959 8.959 0 0 0 806.1 19.65 Q 810.45 19.65 813 17.025 A 8.665 8.665 0 0 0 815.137 13.325 A 11.266 11.266 0 0 0 815.55 10.2 A 10.887 10.887 0 0 0 815.549 10.078 A 9.091 9.091 0 0 0 812.775 3.525 Q 810 0.75 806.1 0.75 A 12.396 12.396 0 0 0 803.616 0.987 A 8.492 8.492 0 0 0 799.2 3.3 Q 796.65 5.85 796.65 10.2 A 8.987 8.987 0 0 0 797.388 13.828 A 9.965 9.965 0 0 0 799.425 16.8 A 11.203 11.203 0 0 0 799.556 16.932 Z" id="10" vector-effect="non-scaling-stroke"/>
		<path d="M 890.25 39.3 L 890.25 33 L 902.55 33 L 902.55 92.1 A 18.225 18.225 0 0 0 902.702 94.554 Q 903.087 97.376 904.444 98.806 A 4.448 4.448 0 0 0 905.325 99.525 Q 908.1 101.25 911.4 101.25 L 908.55 111.75 Q 894.505 111.75 891.305 100.62 A 20.385 20.385 0 0 1 891.15 100.05 A 31.961 31.961 0 0 1 886.486 105.189 A 42.747 42.747 0 0 1 881.775 108.825 A 22.392 22.392 0 0 1 874.345 111.98 Q 870.855 112.8 866.7 112.8 Q 856.95 112.8 849 107.85 A 34.42 34.42 0 0 1 837.88 96.56 A 41.884 41.884 0 0 1 836.325 93.825 Q 831.6 84.75 831.6 72.45 A 49.713 49.713 0 0 1 833.095 60.047 A 41.952 41.952 0 0 1 836.325 51.45 Q 841.05 42.15 849.375 36.675 A 33.446 33.446 0 0 1 866.167 31.265 A 41.082 41.082 0 0 1 868.5 31.2 A 33.876 33.876 0 0 1 875.69 31.936 A 28.055 28.055 0 0 1 880.725 33.525 A 39.003 39.003 0 0 1 887.155 36.966 A 33.154 33.154 0 0 1 890.25 39.3 Z M 889.05 91.05 L 889.05 49.2 Q 885 46.35 880.125 44.625 Q 875.25 42.9 869.85 42.9 A 23.887 23.887 0 0 0 862.393 44.031 A 21.035 21.035 0 0 0 857.175 46.575 A 24.451 24.451 0 0 0 849.646 54.711 A 29.944 29.944 0 0 0 848.55 56.775 A 30.995 30.995 0 0 0 845.92 65.29 A 41.517 41.517 0 0 0 845.4 72 Q 845.4 80.4 848.55 86.925 A 26.403 26.403 0 0 0 853.208 93.744 A 23.545 23.545 0 0 0 857.25 97.125 Q 862.8 100.8 869.7 100.8 Q 875.4 100.8 880.5 98.025 A 29.176 29.176 0 0 0 887.58 92.697 A 27.106 27.106 0 0 0 889.05 91.05 Z" id="11" vector-effect="non-scaling-stroke"/>
		<path d="M 992.55 103.5 L 983.25 112.5 L 942.9 70.95 L 942.9 111 L 929.4 111 L 929.4 0 L 942.9 0 L 942.9 63.45 L 978.15 31.5 L 985.95 40.05 L 955.8 66.75 L 992.55 103.5 Z" id="12" vector-effect="non-scaling-stroke"/>
	</g>
</svg>